<svg id="Layer_1" enable-background="new 0 0 511.007 511.007" height="512" viewBox="0 0 511.007 511.007" width="512" xmlns="http://www.w3.org/2000/svg"><g><path fill="#FFDB6E" d="m87.503 40.003c-17.369 0-31.5 14.131-31.5 31.5v.5h-8v63h79v-63h-8v-.5c0-17.369-14.131-31.5-31.5-31.5zm-16.5 31.5c.832-21.865 32.176-21.848 33 0v.5h-33zm41 48.5h-49v-33h49z"/><path fill="#FFDB6E" d="m391.503 463.003h64c27.01-.563 32.306-37.613 6.975-45.943-8.022-43.802-69.944-43.771-77.949 0-25.348 8.342-20.016 45.388 6.974 45.943zm0-32h7.5v-7.5c1.236-32.466 47.776-32.441 49 0v7.5h7.5c11.264.429 11.255 16.576 0 17h-64c-11.263-.428-11.255-16.575 0-17z"/><path fill="#FFDB6E" d="m400.003 103.23v16.273c1.185 31.141 45.826 31.117 47 0v-16.273c30.236-22.283 14.559-71.136-23.501-71.227-38.059.092-53.734 48.952-23.499 71.227zm32 16.273c-.429 11.264-16.576 11.255-17 0v-9.431c5.443 1.233 11.557 1.233 17 0zm-8.5-72.5c28.022.572 33.698 38.935 7.5 47.821v-23.321h-15v23.321c-26.214-8.898-20.502-47.256 7.5-47.821z"/><path fill="#FFDB6E" d="m26.2 426.2 10.606 10.606 11.197-11.197v37.394h79v-37.393l11.197 11.197 10.606-10.606-61.303-61.303zm85.803 21.803h-49v-37.393l24.5-24.5 24.5 24.5z"/><path fill="#FFDB6E" d="m175.503 239.003h8.5v33h-8.5v15h32v-15h-8.5v-33h8.5v-15h-32z"/><path fill="#FFDB6E" d="m295.503 224.003v15h16.5v48.5h15v-48.5h16.5v-15z"/><path fill="#FFDB6E" d="m255.503 224.003c-17.369 0-31.5 14.131-31.5 31.5 1.584 41.732 61.423 41.72 63 0 0-17.369-14.131-31.5-31.5-31.5zm0 48c-9.098 0-16.5-7.402-16.5-16.5.829-21.859 32.174-21.853 33 0 0 9.098-7.402 16.5-16.5 16.5z"/><path fill="#FFDB6E" d="m423.503 336.003c-20.853 0-40.58 7.263-56.331 20.563l-22.077-22.077c39.497-42.489 39.489-115.491 0-157.971l22.098-22.098c55.314 47.764 144.447 6.868 143.809-66.917.001-48.246-39.252-87.499-87.499-87.499-73.786-.627-114.683 88.495-66.916 143.81l-22.098 22.098c-42.489-39.497-115.491-39.489-157.971 0l-22.098-22.098c26.596-29.882 27.433-80.614.894-111.614l-11.619 9.487c38.541 46.487 4.283 118.774-56.191 118.316-39.976.001-72.499-32.523-72.499-72.499-.448-60.476 71.828-94.734 118.317-56.19l9.486-11.619c-56.12-46.524-143.349-5.183-142.804 67.81-.634 73.779 88.499 114.685 143.809 66.915l22.098 22.098c-39.497 42.489-39.489 115.491 0 157.971l-22.098 22.098c-55.314-47.763-144.447-6.868-143.809 66.918-.001 48.246 39.252 87.499 87.499 87.499 73.786.627 114.683-88.495 66.916-143.81l22.098-22.098c42.489 39.497 115.491 39.489 157.971 0l22.069 22.069c-11.272 13.406-18.343 30.014-20.109 47.496l14.924 1.508c1.671-16.545 9.082-32.147 20.865-43.93 45.342-45.491 123.876-12.951 123.765 51.266-.061 64.35-78.222 96.725-123.765 51.264-11.784-11.783-19.194-27.385-20.865-43.93l-14.924 1.508c2.018 19.975 10.961 38.808 25.183 53.029 32.57 33.945 91.174 33.944 123.743 0 33.946-32.57 33.944-91.174 0-123.743-16.525-16.528-38.499-25.63-61.871-25.63zm0-321c39.977 0 72.5 32.523 72.5 72.5-3.645 96.049-141.37 96.023-145-.001 0-39.975 32.524-72.499 72.5-72.499zm-336 481c-39.977 0-72.5-32.523-72.5-72.5 3.645-96.049 141.37-96.023 145 .001 0 39.976-32.523 72.499-72.5 72.499zm168-136c-57.622 0-104.5-46.878-104.5-104.5 5.253-138.443 203.768-138.405 209 .001 0 57.621-46.878 104.499-104.5 104.499z"/><path fill="#FFDB6E" d="m263.503 104.003h16v15h-16z"/><path fill="#FFDB6E" d="m231.503 104.003h16v15h-16z"/><path fill="#FFDB6E" d="m263.503 392.003h16v15h-16z"/><path fill="#FFDB6E" d="m231.503 392.003h16v15h-16z"/></g></svg>